<svg width="24" height="24" viewBox="0 0 24 24" fill="none" xmlns="http://www.w3.org/2000/svg">
<g clip-path="url(#clip0_1466_101)">
<path d="M10.4167 11.25H2.83333C2.33333 11.25 2 10.9166 2 10.4166V2.91665C2 2.41665 2.33333 2.08331 2.83333 2.08331H10.3333C10.5833 2.08331 10.75 2.16665 10.9167 2.33331C11.0833 2.49998 11.1667 2.66665 11.1667 2.91665V10.4166C11.25 10.8333 10.8333 11.25 10.4167 11.25ZM3.08333 10.1666H10.0833V3.16665H3.08333V10.1666ZM21.1667 11.25H13.6667C13.1667 11.25 12.8333 10.9166 12.8333 10.4166V2.91665C12.8333 2.41665 13.25 2.08331 13.6667 2.08331H21.1667C21.4167 2.08331 21.5833 2.16665 21.75 2.33331C21.9167 2.49998 22 2.66665 22 2.91665V10.4166C22 10.8333 21.5833 11.25 21.1667 11.25ZM13.8333 10.1666H20.8333V3.16665H13.8333V10.1666ZM10.4167 21.9166H2.83333C2.33333 21.9166 2 21.5 2 21.0833V13.5833C2 13.0833 2.33333 12.75 2.83333 12.75H10.3333C10.5833 12.75 10.75 12.8333 10.9167 13C11.0833 13.1666 11.1667 13.3333 11.1667 13.5833V21.0833C11.25 21.5833 10.8333 21.9166 10.4167 21.9166ZM3.08333 20.8333H10.0833V13.8333H3.08333V20.8333ZM21.1667 21.9166H13.6667C13.1667 21.9166 12.8333 21.5 12.8333 21.0833V13.5833C12.8333 13.0833 13.25 12.75 13.6667 12.75H21.1667C21.4167 12.75 21.5833 12.8333 21.75 13C21.9167 13.1666 22 13.3333 22 13.5833V21.0833C22 21.5833 21.5833 21.9166 21.1667 21.9166ZM13.8333 20.8333H20.8333V13.8333H13.8333V20.8333Z" fill="white"/>
</g>
<defs>
<clipPath id="clip0_1466_101">
<rect width="20" height="20" fill="white" transform="translate(2 2)"/>
</clipPath>
</defs>
</svg>
