<svg width="24" height="24" viewBox="0 0 24 24" fill="none" xmlns="http://www.w3.org/2000/svg">
<path fill-rule="evenodd" clip-rule="evenodd" d="M14.586 12L8.29304 5.70701C8.11089 5.51841 8.01009 5.26581 8.01237 5.00361C8.01465 4.74141 8.11982 4.4906 8.30522 4.30519C8.49063 4.11978 8.74145 4.01461 9.00364 4.01234C9.26584 4.01006 9.51844 4.11085 9.70704 4.29301L16.707 11.293C16.8 11.3858 16.8737 11.496 16.924 11.6173C16.9743 11.7386 17.0002 11.8687 17.0002 12C17.0002 12.1313 16.9743 12.2614 16.924 12.3827C16.8737 12.504 16.8 12.6142 16.707 12.707L9.70704 19.707C9.51844 19.8892 9.26584 19.99 9.00364 19.9877C8.74145 19.9854 8.49063 19.8802 8.30522 19.6948C8.11982 19.5094 8.01465 19.2586 8.01237 18.9964C8.01009 18.7342 8.11089 18.4816 8.29304 18.293L14.586 12Z" fill="white"/>
</svg>
