<svg width="24" height="24" viewBox="0 0 24 24" fill="none" xmlns="http://www.w3.org/2000/svg">
<path fill-rule="evenodd" clip-rule="evenodd" d="M22.7925 8.20932C22.9254 8.34339 23 8.5252 23 8.71477C23 8.90434 22.9254 9.08615 22.7925 9.22022L16.0598 16.012C15.9269 16.146 15.7467 16.2213 15.5588 16.2213C15.3709 16.2213 15.1906 16.146 15.0577 16.012L12.0153 12.9428L7.20105 17.7993C7.06738 17.9295 6.88836 18.0016 6.70254 18C6.51672 17.9983 6.33897 17.9232 6.20757 17.7906C6.07617 17.6581 6.00164 17.4787 6.00003 17.2913C5.99841 17.1038 6.06985 16.9232 6.19894 16.7884L11.5142 11.4265C11.6471 11.2925 11.8273 11.2172 12.0153 11.2172C12.2032 11.2172 12.3834 11.2925 12.5163 11.4265L15.5588 14.4956L21.7904 8.20932C21.9233 8.07529 22.1035 8 22.2914 8C22.4794 8 22.6596 8.07529 22.7925 8.20932Z" fill="white"/>
<path d="M2 4V21C2 21.5523 2.44772 22 3 22H20" stroke="white" stroke-width="1.5" stroke-linecap="round"/>
</svg>
