<svg width="32" height="32" viewBox="0 0 32 32" fill="none" xmlns="http://www.w3.org/2000/svg">
<path d="M10.6666 19.3333C11.403 19.3333 12 18.7364 12 18C12 17.2636 11.403 16.6667 10.6666 16.6667C9.93027 16.6667 9.33331 17.2636 9.33331 18C9.33331 18.7364 9.93027 19.3333 10.6666 19.3333Z" fill="#028DE3"/>
<path d="M10.6666 24.6667C11.403 24.6667 12 24.0697 12 23.3333C12 22.597 11.403 22 10.6666 22C9.93027 22 9.33331 22.597 9.33331 23.3333C9.33331 24.0697 9.93027 24.6667 10.6666 24.6667Z" fill="#028DE3"/>
<path d="M16 19.3333C16.7364 19.3333 17.3333 18.7364 17.3333 18C17.3333 17.2636 16.7364 16.6667 16 16.6667C15.2636 16.6667 14.6667 17.2636 14.6667 18C14.6667 18.7364 15.2636 19.3333 16 19.3333Z" fill="#028DE3"/>
<path d="M16 24.6667C16.7364 24.6667 17.3333 24.0697 17.3333 23.3333C17.3333 22.597 16.7364 22 16 22C15.2636 22 14.6667 22.597 14.6667 23.3333C14.6667 24.0697 15.2636 24.6667 16 24.6667Z" fill="#028DE3"/>
<path d="M21.3333 19.3333C22.0697 19.3333 22.6667 18.7364 22.6667 18C22.6667 17.2636 22.0697 16.6667 21.3333 16.6667C20.597 16.6667 20 17.2636 20 18C20 18.7364 20.597 19.3333 21.3333 19.3333Z" fill="#028DE3"/>
<path d="M21.3333 24.6667C22.0697 24.6667 22.6667 24.0697 22.6667 23.3333C22.6667 22.597 22.0697 22 21.3333 22C20.597 22 20 22.597 20 23.3333C20 24.0697 20.597 24.6667 21.3333 24.6667Z" fill="#028DE3"/>
<path fill-rule="evenodd" clip-rule="evenodd" d="M30.3333 8.66667V26C30.3326 27.3259 29.8056 28.5972 28.8681 29.5348C27.9305 30.4723 26.6592 30.9993 25.3333 31H6.66666C5.34079 30.9993 4.06943 30.4723 3.1319 29.5348C2.19437 28.5972 1.66736 27.3259 1.66666 26V8.66667C1.66736 7.34081 2.19437 6.06945 3.1319 5.13192C4.06943 4.19439 5.34079 3.66738 6.66666 3.66667H25.3333C26.6592 3.66738 27.9305 4.19439 28.8681 5.13192C29.8056 6.06945 30.3326 7.34081 30.3333 8.66667ZM28.3333 8.66667C28.3333 7.87102 28.0173 7.10796 27.4546 6.54535C26.892 5.98274 26.129 5.66667 25.3333 5.66667H6.66666C5.87101 5.66667 5.10795 5.98274 4.54534 6.54535C3.98273 7.10796 3.66666 7.87102 3.66666 8.66667V26C3.66666 26.7957 3.98273 27.5587 4.54534 28.1213C5.10795 28.6839 5.87101 29 6.66666 29H25.3333C26.129 29 26.892 28.6839 27.4546 28.1213C28.0173 27.5587 28.3333 26.7957 28.3333 26V8.66667Z" fill="#028DE3"/>
<path fill-rule="evenodd" clip-rule="evenodd" d="M29.3333 11C29.5985 11 29.8529 11.1054 30.0404 11.2929C30.228 11.4804 30.3333 11.7348 30.3333 12C30.3333 12.2652 30.228 12.5196 30.0404 12.7071C29.8529 12.8946 29.5985 13 29.3333 13H2.66666C2.40144 13 2.14709 12.8946 1.95955 12.7071C1.77201 12.5196 1.66666 12.2652 1.66666 12C1.66666 11.7348 1.77201 11.4804 1.95955 11.2929C2.14709 11.1054 2.40144 11 2.66666 11H29.3333ZM20.3333 2C20.3333 1.73478 20.4387 1.48043 20.6262 1.29289C20.8138 1.10536 21.0681 1 21.3333 1C21.5985 1 21.8529 1.10536 22.0404 1.29289C22.228 1.48043 22.3333 1.73478 22.3333 2V7.33333C22.3333 7.59855 22.228 7.8529 22.0404 8.04044C21.8529 8.22798 21.5985 8.33333 21.3333 8.33333C21.0681 8.33333 20.8138 8.22798 20.6262 8.04044C20.4387 7.8529 20.3333 7.59855 20.3333 7.33333V2ZM9.66666 2C9.66666 1.73478 9.77201 1.48043 9.95955 1.29289C10.1471 1.10536 10.4014 1 10.6667 1C10.9319 1 11.1862 1.10536 11.3738 1.29289C11.5613 1.48043 11.6667 1.73478 11.6667 2V7.33333C11.6667 7.59855 11.5613 7.8529 11.3738 8.04044C11.1862 8.22798 10.9319 8.33333 10.6667 8.33333C10.4014 8.33333 10.1471 8.22798 9.95955 8.04044C9.77201 7.8529 9.66666 7.59855 9.66666 7.33333V2Z" fill="#028DE3"/>
</svg>
