<svg width="48" height="48" viewBox="0 0 48 48" fill="none" xmlns="http://www.w3.org/2000/svg">
<rect x="0.75" y="0.75" width="46.5" height="46.5" rx="23.25" fill="#F0F3FF"/>
<rect x="0.75" y="0.75" width="46.5" height="46.5" rx="23.25" stroke="#4F75FF" stroke-width="1.5"/>
<path d="M32.1901 18.345L27.0339 13.1888C26.913 13.068 26.7491 13.0001 26.5781 13H17.5547C16.4885 13 15.6211 13.8674 15.6211 14.9336V33.0664C15.6211 34.1326 16.4885 35 17.5547 35H30.4453C31.5115 35 32.3789 34.1326 32.3789 33.0664V18.8008C32.3789 18.625 32.3051 18.46 32.1901 18.345ZM27.2227 15.2006L30.1783 18.1562H27.8672C27.5118 18.1562 27.2227 17.8671 27.2227 17.5117V15.2006ZM30.4453 33.7109H17.5547C17.1993 33.7109 16.9102 33.4218 16.9102 33.0664V14.9336C16.9102 14.5782 17.1993 14.2891 17.5547 14.2891H25.9336V17.5117C25.9336 18.5779 26.801 19.4453 27.8672 19.4453H31.0898V33.0664C31.0898 33.4218 30.8007 33.7109 30.4453 33.7109Z" fill="#4F75FF"/>
<path d="M27.8672 22.1094H20.1328C19.7769 22.1094 19.4883 22.398 19.4883 22.7539C19.4883 23.1099 19.7769 23.3984 20.1328 23.3984H27.8672C28.2231 23.3984 28.5117 23.1099 28.5117 22.7539C28.5117 22.398 28.2231 22.1094 27.8672 22.1094ZM27.8672 24.6875H20.1328C19.7769 24.6875 19.4883 24.9761 19.4883 25.332C19.4883 25.688 19.7769 25.9766 20.1328 25.9766H27.8672C28.2231 25.9766 28.5117 25.688 28.5117 25.332C28.5117 24.9761 28.2231 24.6875 27.8672 24.6875ZM27.8672 27.2656H20.1328C19.7769 27.2656 19.4883 27.5542 19.4883 27.9102C19.4883 28.2661 19.7769 28.5547 20.1328 28.5547H27.8672C28.2231 28.5547 28.5117 28.2661 28.5117 27.9102C28.5117 27.5542 28.2231 27.2656 27.8672 27.2656ZM25.2891 29.8438H20.1328C19.7769 29.8438 19.4883 30.1323 19.4883 30.4883C19.4883 30.8442 19.7769 31.1328 20.1328 31.1328H25.2891C25.645 31.1328 25.9336 30.8442 25.9336 30.4883C25.9336 30.1323 25.645 29.8438 25.2891 29.8438Z" fill="#4F75FF"/>
</svg>
