<svg width="48" height="48" viewBox="0 0 48 48" fill="none" xmlns="http://www.w3.org/2000/svg">
<rect x="0.75" y="0.75" width="46.5" height="46.5" rx="23.25" stroke="#028DE3" stroke-width="1.5"/>
<path d="M12 24L13.6 25.2C15.0222 26.2667 16.9778 26.2667 18.4 25.2L20 24L21.6 22.8C23.0222 21.7333 24.9778 21.7333 26.4 22.8L28 24L29.6 25.2C31.0222 26.2667 32.9778 26.2667 34.4 25.2L36 24" stroke="#028DE3" stroke-width="1.5" stroke-linecap="round"/>
<path d="M12 30L13.6 31.2C15.0222 32.2667 16.9778 32.2667 18.4 31.2L20 30L21.6 28.8C23.0222 27.7333 24.9778 27.7333 26.4 28.8L28 30L29.6 31.2C31.0222 32.2667 32.9778 32.2667 34.4 31.2L36 30" stroke="#028DE3" stroke-width="1.5" stroke-linecap="round"/>
<path d="M12 18L13.6 19.2C15.0222 20.2667 16.9778 20.2667 18.4 19.2L20 18L21.6 16.8C23.0222 15.7333 24.9778 15.7333 26.4 16.8L28 18L29.6 19.2C31.0222 20.2667 32.9778 20.2667 34.4 19.2L36 18" stroke="#028DE3" stroke-width="1.5" stroke-linecap="round"/>
</svg>
