<svg width="24" height="24" viewBox="0 0 24 24" fill="none" xmlns="http://www.w3.org/2000/svg">
<path d="M18.8571 0H5.14286C2.30254 0 0 2.30254 0 5.14286V18.8571C0 21.6975 2.30254 24 5.14286 24H18.8571C21.6975 24 24 21.6975 24 18.8571V5.14286C24 2.30254 21.6975 0 18.8571 0Z" fill="url(#paint0_radial_181_66)"/>
<path d="M18.8571 0H5.14286C2.30254 0 0 2.30254 0 5.14286V18.8571C0 21.6975 2.30254 24 5.14286 24H18.8571C21.6975 24 24 21.6975 24 18.8571V5.14286C24 2.30254 21.6975 0 18.8571 0Z" fill="url(#paint1_radial_181_66)"/>
<path d="M18.8571 0H5.14286C2.30254 0 0 2.30254 0 5.14286V18.8571C0 21.6975 2.30254 24 5.14286 24H18.8571C21.6975 24 24 21.6975 24 18.8571V5.14286C24 2.30254 21.6975 0 18.8571 0Z" fill="url(#paint2_radial_181_66)"/>
<path d="M18.0001 7.28571C18.0001 7.99577 17.4245 8.57143 16.7144 8.57143C16.0044 8.57143 15.4287 7.99577 15.4287 7.28571C15.4287 6.57563 16.0044 6 16.7144 6C17.4245 6 18.0001 6.57563 18.0001 7.28571Z" fill="white"/>
<path fill-rule="evenodd" clip-rule="evenodd" d="M11.9996 16.2857C14.3665 16.2857 16.2853 14.3669 16.2853 12C16.2853 9.63308 14.3665 7.71428 11.9996 7.71428C9.63267 7.71428 7.71387 9.63308 7.71387 12C7.71387 14.3669 9.63267 16.2857 11.9996 16.2857ZM11.9996 14.5714C13.4198 14.5714 14.571 13.4202 14.571 12C14.571 10.5798 13.4198 9.42857 11.9996 9.42857C10.5794 9.42857 9.42815 10.5798 9.42815 12C9.42815 13.4202 10.5794 14.5714 11.9996 14.5714Z" fill="white"/>
<path fill-rule="evenodd" clip-rule="evenodd" d="M3.42871 11.6571C3.42871 8.77689 3.42871 7.33672 3.98925 6.23663C4.48231 5.26893 5.26907 4.48217 6.23676 3.98911C7.33685 3.42857 8.77703 3.42857 11.6573 3.42857H12.343C15.2233 3.42857 16.6634 3.42857 17.7635 3.98911C18.7312 4.48217 19.518 5.26893 20.011 6.23663C20.5716 7.33672 20.5716 8.77689 20.5716 11.6571V12.3429C20.5716 15.2231 20.5716 16.6633 20.011 17.7633C19.518 18.7311 18.7312 19.5178 17.7635 20.0109C16.6634 20.5714 15.2233 20.5714 12.343 20.5714H11.6573C8.77703 20.5714 7.33685 20.5714 6.23676 20.0109C5.26907 19.5178 4.48231 18.7311 3.98925 17.7633C3.42871 16.6633 3.42871 15.2231 3.42871 12.3429V11.6571ZM11.6573 5.14286H12.343C13.8115 5.14286 14.8096 5.1442 15.5812 5.20723C16.3328 5.26864 16.7172 5.37994 16.9853 5.51655C17.6304 5.84526 18.1549 6.36977 18.4836 7.01486C18.6202 7.28297 18.7315 7.66732 18.7929 8.41895C18.8559 9.19055 18.8573 10.1887 18.8573 11.6571V12.3429C18.8573 13.8113 18.8559 14.8095 18.7929 15.5811C18.7315 16.3327 18.6202 16.717 18.4836 16.9851C18.1549 17.6302 17.6304 18.1547 16.9853 18.4834C16.7172 18.6201 16.3328 18.7314 15.5812 18.7928C14.8096 18.8558 13.8115 18.8571 12.343 18.8571H11.6573C10.1888 18.8571 9.19068 18.8558 8.41908 18.7928C7.66745 18.7314 7.28311 18.6201 7.015 18.4834C6.3699 18.1547 5.8454 17.6302 5.51669 16.9851C5.38007 16.717 5.26877 16.3327 5.20737 15.5811C5.14433 14.8095 5.143 13.8113 5.143 12.3429V11.6571C5.143 10.1887 5.14433 9.19055 5.20737 8.41895C5.26877 7.66732 5.38007 7.28297 5.51669 7.01486C5.8454 6.36977 6.3699 5.84526 7.015 5.51655C7.28311 5.37994 7.66745 5.26864 8.41908 5.20723C9.19068 5.1442 10.1888 5.14286 11.6573 5.14286Z" fill="white"/>
<defs>
<radialGradient id="paint0_radial_181_66" cx="0" cy="0" r="1" gradientUnits="userSpaceOnUse" gradientTransform="translate(8.57143 18) rotate(-55.3758) scale(21.8739)">
<stop stop-color="#B13589"/>
<stop offset="0.79309" stop-color="#C62F94"/>
<stop offset="1" stop-color="#8A3AC8"/>
</radialGradient>
<radialGradient id="paint1_radial_181_66" cx="0" cy="0" r="1" gradientUnits="userSpaceOnUse" gradientTransform="translate(7.71429 24.8571) rotate(-65.1363) scale(19.3665)">
<stop stop-color="#E0E8B7"/>
<stop offset="0.444662" stop-color="#FB8A2E"/>
<stop offset="0.71474" stop-color="#E2425C"/>
<stop offset="1" stop-color="#E2425C" stop-opacity="0"/>
</radialGradient>
<radialGradient id="paint2_radial_181_66" cx="0" cy="0" r="1" gradientUnits="userSpaceOnUse" gradientTransform="translate(-1.28571 0.857143) rotate(-8.1301) scale(33.3351 7.13002)">
<stop offset="0.156701" stop-color="#406ADC"/>
<stop offset="0.467799" stop-color="#6A45BE"/>
<stop offset="1" stop-color="#6A45BE" stop-opacity="0"/>
</radialGradient>
</defs>
</svg>
