<svg width="24" height="24" viewBox="0 0 24 24" fill="none" xmlns="http://www.w3.org/2000/svg">
<path d="M22.9193 11.3532C23.1027 11.7096 22.956 12.1461 22.5893 12.328L12.323 17.4201C12.2224 17.4726 12.1104 17.5 11.9967 17.5C11.883 17.5 11.771 17.4726 11.6704 17.4201L1.40407 12.328C1.23146 12.2406 1.10022 12.0896 1.03853 11.9074C0.976843 11.7252 0.989606 11.5262 1.07409 11.3532C1.25741 10.9968 1.6974 10.8513 2.05672 11.0259L12.0004 15.9579L21.9367 11.0259C22.3034 10.8513 22.7433 10.9968 22.9193 11.3532ZM1.00075 7.3159C1.00075 7.03947 1.15475 6.79214 1.40407 6.66847L11.6704 1.57638C11.8757 1.47454 12.1177 1.47454 12.323 1.57638L22.5893 6.66847C22.846 6.79214 23 7.03947 23 7.3159C23 7.59233 22.846 7.83966 22.5967 7.96332L12.3304 13.0554C12.2277 13.1063 12.1104 13.1354 12.0004 13.1354C11.8904 13.1354 11.7731 13.1063 11.6704 13.0554L1.40407 7.96332C1.2825 7.90367 1.18024 7.81137 1.10894 7.69691C1.03763 7.58246 1.00015 7.45044 1.00075 7.3159ZM3.37667 7.3159L12.0004 11.5933L20.6241 7.3159L12.0004 3.03854L3.37667 7.3159Z" fill="white"/>
<path d="M22.9211 15.4288C23.1044 15.8099 22.9577 16.2765 22.5911 16.4709L12.3239 21.9145C12.2233 21.9707 12.1113 22 11.9976 22C11.8839 22 11.7719 21.9707 11.6712 21.9145L1.40411 16.4709C1.23147 16.3775 1.10023 16.2161 1.03854 16.0213C0.976841 15.8265 0.989605 15.6138 1.07409 15.4288C1.25743 15.0478 1.69745 14.8923 2.0568 15.0789L12.0012 20.3514L21.9384 15.0789C22.305 14.8923 22.7451 15.0478 22.9211 15.4288Z" fill="white"/>
</svg>
