<svg width="24" height="24" viewBox="0 0 24 24" fill="none" xmlns="http://www.w3.org/2000/svg">
<path d="M18.4286 2H5.57142C3.59995 2.00234 2.00234 3.59995 2 5.57142V18.4286C2.00234 20.4001 3.59995 21.9977 5.57142 22H18.4286C20.4001 21.9977 21.9977 20.4001 22 18.4286V5.57142C21.9977 3.59995 20.4001 2.00234 18.4286 2ZM11.2857 20.5714H5.57142C4.38795 20.5714 3.42856 19.6121 3.42856 18.4286V5.57142C3.42856 4.38795 4.38795 3.42856 5.57142 3.42856H11.2857V20.5714H11.2857ZM20.5714 18.4286C20.5714 19.6121 19.6121 20.5714 18.4286 20.5714H12.7143V12.7143H20.5714V18.4286ZM20.5714 11.2857H12.7143V3.42856H18.4286C19.6121 3.42856 20.5714 4.38795 20.5714 5.57142V11.2857Z" fill="#028DE3"/>
</svg>
