<svg width="48" height="48" viewBox="0 0 48 48" fill="none" xmlns="http://www.w3.org/2000/svg">
<rect x="0.75" y="0.75" width="46.5" height="46.5" rx="23.25" stroke="white" stroke-width="1.5"/>
<path fill-rule="evenodd" clip-rule="evenodd" d="M23.002 16.001V15.999C23.0135 15.7418 23.1238 15.4989 23.3099 15.321C23.496 15.143 23.7435 15.0437 24.001 15.0437C24.2585 15.0437 24.5061 15.143 24.6921 15.321C24.8782 15.4989 24.9885 15.7418 25 15.999V16.002C25.0005 17.8502 25.7319 19.6232 27.0347 20.9343C28.3375 22.2453 30.1058 22.9878 31.954 23L32.001 22.999C32.2664 22.999 32.5209 23.1044 32.7085 23.292C32.8961 23.4797 33.0015 23.7341 33.0015 23.9995C33.0015 24.2648 32.8961 24.5193 32.7085 24.707C32.5209 24.8946 32.2664 25 32.001 25H31.998C31.079 24.9999 30.169 25.1808 29.32 25.5326C28.471 25.8843 27.6997 26.4 27.05 27.05C26.4 27.6996 25.8844 28.471 25.5326 29.32C25.1809 30.169 24.9999 31.079 25 31.998V31.999C25.0002 32.1303 24.9744 32.2604 24.9243 32.3818C24.8742 32.5031 24.8006 32.6134 24.7078 32.7064C24.6151 32.7993 24.5049 32.8731 24.3836 32.9235C24.2624 32.9739 24.1323 32.9999 24.001 33C23.8694 33.0001 23.7391 32.9743 23.6176 32.924C23.496 32.8736 23.3856 32.7998 23.2926 32.7067C23.1996 32.6137 23.1259 32.5031 23.0757 32.3815C23.0255 32.2599 22.9998 32.1296 23 31.998C23.0002 31.079 22.8192 30.169 22.4674 29.32C22.1157 28.471 21.6 27.6996 20.95 27.05C20.3004 26.4 19.529 25.8843 18.68 25.5326C17.831 25.1808 16.921 24.9999 16.002 25C15.7368 24.9938 15.4839 24.8824 15.3008 24.6905C15.1177 24.4985 15.0183 24.2417 15.0245 23.9765C15.0308 23.7113 15.1421 23.4594 15.334 23.2763C15.526 23.0931 15.7828 22.9938 16.048 23C17.8881 22.988 19.6493 22.2515 20.95 20.95C21.6 20.3004 22.1157 19.529 22.4674 18.68C22.8192 17.831 23.0002 16.921 23 16.002L23.002 16.001ZM19.002 31.944V32C19.002 32.2652 18.8967 32.5196 18.7091 32.7071C18.5216 32.8946 18.2672 33 18.002 33C17.7368 33 17.4825 32.8946 17.2949 32.7071C17.1074 32.5196 17.002 32.2652 17.002 32C17.002 31.8685 16.9761 31.7383 16.9257 31.6168C16.8753 31.4954 16.8015 31.3851 16.7084 31.2922C16.6154 31.1993 16.5049 31.1257 16.3833 31.0755C16.2618 31.0254 16.1315 30.9997 16 31H15.998C15.7328 30.9997 15.4786 30.8941 15.2912 30.7064C15.1039 30.5187 14.9988 30.2642 14.999 29.999C14.9993 29.7338 15.1049 29.4795 15.2926 29.2922C15.4803 29.1048 15.7348 28.9997 16 29C16.1315 29.0003 16.2618 28.9746 16.3833 28.9244C16.5049 28.8743 16.6154 28.8007 16.7084 28.7078C16.8015 28.6149 16.8753 28.5046 16.9257 28.3831C16.9761 28.2617 17.002 28.1315 17.002 28C17.002 27.7348 17.1074 27.4804 17.2949 27.2929C17.4825 27.1054 17.7368 27 18.002 27C18.2672 27 18.5216 27.1054 18.7091 27.2929C18.8967 27.4804 19.002 27.7348 19.002 28V28.056C19.031 28.582 19.468 29 20.002 29C20.2672 28.9997 20.5217 29.1048 20.7094 29.2922C20.8971 29.4795 21.0028 29.7338 21.003 29.999C21.0033 30.2642 20.8982 30.5187 20.7108 30.7064C20.5235 30.8941 20.2692 30.9997 20.004 31H20.002C19.468 31 19.031 31.418 19.002 31.944ZM24 20.123C24.4258 20.9504 24.9774 21.7067 25.635 22.365C26.2933 23.0226 27.0497 23.5742 27.877 24C27.0497 24.4258 26.2933 24.9774 25.635 25.635C24.9774 26.2933 24.4258 27.0496 24 27.877C23.5742 27.0496 23.0226 26.2933 22.365 25.635C21.7067 24.9774 20.9504 24.4258 20.123 24C20.9504 23.5742 21.7067 23.0226 22.365 22.365C23.0226 21.7067 23.5742 20.9504 24 20.123ZM30.999 19.943L31 19.999C31 20.2642 30.8947 20.5186 30.7071 20.7061C30.5196 20.8936 30.2652 20.999 30 20.999C29.7348 20.999 29.4805 20.8936 29.2929 20.7061C29.1054 20.5186 29 20.2642 29 19.999C29 19.8675 28.9741 19.7373 28.9237 19.6158C28.8733 19.4944 28.7995 19.3841 28.7064 19.2912C28.6134 19.1983 28.5029 19.1247 28.3813 19.0745C28.2598 19.0244 28.1295 18.9987 27.998 18.999H27.996C27.7308 18.9987 27.4766 18.8931 27.2892 18.7054C27.1019 18.5177 26.9968 18.2632 26.997 17.998C26.9973 17.7328 27.1029 17.4785 27.2906 17.2912C27.4783 17.1038 27.7328 16.9987 27.998 16.999C28.551 16.999 29 16.551 29 15.999C29 15.7338 29.1054 15.4794 29.2929 15.2919C29.4805 15.1043 29.7348 14.999 30 14.999C30.2652 14.999 30.5196 15.1043 30.7071 15.2919C30.8947 15.4794 31 15.7338 31 15.999L30.999 16.054C31.028 16.581 31.466 16.999 32 16.999C32.2652 16.9987 32.5197 17.1038 32.7074 17.2912C32.8951 17.4785 33.0008 17.7328 33.001 17.998C33.0013 18.2632 32.8962 18.5177 32.7088 18.7054C32.5215 18.8931 32.2672 18.9987 32.002 18.999H32C31.466 18.999 31.028 19.416 30.999 19.943Z" fill="white"/>
</svg>
