<svg width="32" height="32" viewBox="0 0 32 32" fill="none" xmlns="http://www.w3.org/2000/svg">
<path d="M29.1875 4.75H2.8125C1.26488 4.75 0 6.00931 0 7.5625V24.4375C0 25.9913 1.26569 27.25 2.8125 27.25H29.1875C30.7351 27.25 32 25.9907 32 24.4375V7.5625C32 6.00894 30.7345 4.75 29.1875 4.75ZM28.7556 6.625L16.7265 18.6934C16.36 19.061 15.6402 19.0612 15.2735 18.6934L3.24437 6.625H28.7556ZM1.875 24.0928V7.90719L9.94156 16L1.875 24.0928ZM3.24437 25.375L11.2653 17.328L13.9456 20.0171C15.0439 21.119 16.9565 21.1186 18.0545 20.0171L20.7348 17.3281L28.7556 25.375H3.24437ZM30.125 24.0928L22.0584 16L30.125 7.90719V24.0928Z" fill="#028DE3"/>
</svg>
