<svg width="24" height="24" viewBox="0 0 24 24" fill="none" xmlns="http://www.w3.org/2000/svg">
<path d="M22.6909 5.27274C22.6909 5.12729 22.5818 4.98183 22.4727 4.94547L12.1454 0.400014C12.0363 0.363651 11.9273 0.363651 11.8545 0.400014L1.52725 4.94547C1.49089 4.98183 1.27271 5.0182 1.27271 5.27274V18.5455C1.27271 18.6909 1.34543 18.8 1.49089 18.8727L11.8182 23.6C11.9273 23.6364 12.0363 23.6364 12.1091 23.6L22.4363 18.8727C22.5818 18.8 22.6545 18.6909 22.6545 18.5455C22.6909 18.5091 22.6909 5.23638 22.6909 5.27274ZM12 1.12729L21.4545 5.27274C21.2363 5.38183 22.8 4.69092 12 9.45456L2.54543 5.27274L12 1.12729ZM2.03634 5.85456C2.39998 6.00001 9.12725 8.98183 11.6363 10.1091V22.7273L2.03634 18.2909V5.85456ZM21.9636 18.2909L12.3636 22.6909V10.0727L21.9636 5.8182V18.2909Z" fill="white" stroke="white" stroke-width="0.5"/>
</svg>
