<svg width="96" height="96" viewBox="0 0 96 96" fill="none" xmlns="http://www.w3.org/2000/svg">
<path d="M87.075 49.65C86.7187 49.05 86.3062 48.4875 85.8 48C86.2875 47.5125 86.7187 46.95 87.075 46.35L92.6062 36.7875C94.0312 34.3125 94.0312 31.2562 92.6062 28.7812L87.075 19.2188C85.65 16.7438 83.0062 15.225 80.1375 15.225H69.0937C68.325 15.225 67.5375 15.3375 66.8062 15.5625C66.6187 14.8687 66.3562 14.1938 66 13.575L60.4875 4.0125C59.025 1.51875 56.3812 0 53.5312 0H42.4875C39.6375 0 36.9937 1.51875 35.5687 3.99375L30.0375 13.5563C29.6812 14.175 29.4 14.85 29.2312 15.5625C28.4812 15.3375 27.6937 15.225 26.925 15.225H15.8625C13.0125 15.225 10.3687 16.7438 8.92495 19.2188L3.3937 28.7812C1.9687 31.2562 1.9687 34.3125 3.3937 36.7875L8.92495 46.35C9.2812 46.95 9.6937 47.5125 10.2 48C9.71245 48.4875 9.2812 49.05 8.92495 49.65L3.3937 59.2125C1.9687 61.6875 1.9687 64.7438 3.3937 67.2188L8.92495 76.7812C10.3687 79.2562 12.9937 80.775 15.8625 80.775H26.8875C27.675 80.775 28.4437 80.6625 29.1937 80.4375C29.3625 81.1313 29.6437 81.8063 30 82.425L35.5312 91.9875C36.9562 94.4625 39.6 95.9812 42.4687 96H53.5125C56.3812 96 59.025 94.4813 60.45 92.0063L65.9812 82.4438C66.3375 81.825 66.6187 81.15 66.7875 80.4375C67.5375 80.6625 68.3062 80.775 69.075 80.7937H80.1375C83.0062 80.7937 85.6312 79.275 87.075 76.8L92.6062 67.2375C94.0312 64.7625 94.0312 61.7062 92.6062 59.2312L87.075 49.65ZM80.1562 19.9125C81.3375 19.9125 82.4062 20.5312 83.0062 21.5625L88.5375 31.125C89.1187 32.1375 89.1187 33.3938 88.5375 34.425L83.0062 43.9875C82.425 45.0188 81.3375 45.6375 80.1562 45.6562H69.0937C67.9125 45.6562 66.825 45.0187 66.2437 44.0062L60.7125 34.4437C60.1312 33.4312 60.1312 32.175 60.7125 31.1438L66.2437 21.5812C66.825 20.55 67.9125 19.9312 69.0937 19.9125H80.1562ZM39.6187 59.2125L34.0875 49.65C33.5062 48.6375 33.5062 47.3812 34.0875 46.35L39.6187 36.7875C40.2 35.775 41.2875 35.1375 42.4687 35.1375H53.5125C54.6937 35.1375 55.7812 35.775 56.3625 36.7875L61.8937 46.35C62.475 47.3625 62.475 48.6187 61.8937 49.65L56.3625 59.2125C55.7812 60.225 54.6937 60.8625 53.5125 60.8625H42.4687C41.3062 60.8625 40.2187 60.225 39.6187 59.2125ZM34.1062 15.9188L39.6375 6.35625C40.2187 5.34375 41.3062 4.70625 42.4875 4.70625H53.5312C54.7125 4.70625 55.8 5.34375 56.3812 6.35625L61.9125 15.9188C62.4937 16.9313 62.4937 18.1875 61.9125 19.2188L56.3812 28.7812C55.8 29.7938 54.7125 30.4313 53.5312 30.4313H42.4875C41.3062 30.4313 40.2187 29.7938 39.6375 28.7812L34.1062 19.2188C33.5062 18.2062 33.5062 16.95 34.1062 15.9188ZM7.4812 34.425C6.89995 33.4125 6.89995 32.1562 7.4812 31.125L13.0125 21.5625C13.5937 20.55 14.6812 19.9125 15.8625 19.9125H26.9062C28.0875 19.9125 29.175 20.5312 29.7562 21.5625L35.2875 31.125C35.8687 32.1375 35.8687 33.3938 35.2875 34.425L29.7562 43.9875C29.175 45.0188 28.0875 45.6562 26.9062 45.6562H15.8625C14.6812 45.6562 13.5937 45.0187 13.0125 44.0062L7.4812 34.425ZM15.8625 76.0875C14.6812 76.0875 13.5937 75.4688 13.0125 74.4375L7.4812 64.875C6.89995 63.8625 6.89995 62.6062 7.4812 61.575L13.0125 52.0125C13.5937 51 14.6812 50.3625 15.8625 50.3625H26.9062C28.0875 50.3625 29.175 51 29.7562 52.0125L35.2875 61.575C35.8687 62.5875 35.8687 63.8438 35.2875 64.875L29.7562 74.4375C29.1562 75.45 28.0875 76.0688 26.9062 76.0688H15.8625V76.0875ZM61.8937 80.0813L56.3625 89.6438C55.7812 90.6563 54.6937 91.2937 53.5125 91.2937H42.4687C41.2875 91.2937 40.2 90.6563 39.6187 89.6438L34.0875 80.0813C33.5062 79.0688 33.5062 77.8125 34.0875 76.7812L39.6187 67.2188C40.2 66.2062 41.2875 65.5688 42.4687 65.5688H53.5125C54.6937 65.5688 55.7812 66.2062 56.3625 67.2188L61.8937 76.7812C62.4937 77.8125 62.4937 79.0688 61.8937 80.0813ZM88.5187 64.8562L82.9875 74.4187C82.4062 75.4312 81.3187 76.0688 80.1375 76.0688H69.075C67.8937 76.0688 66.825 75.45 66.225 74.4187L60.6937 64.8562C60.1125 63.8437 60.1125 62.5875 60.6937 61.5562L66.225 51.9937C66.8062 50.9625 67.8937 50.3437 69.075 50.325H80.1375C81.3187 50.325 82.4062 50.9625 82.9875 51.975L88.5187 61.5375C89.1187 62.5875 89.1187 63.8437 88.5187 64.8562Z" fill="white"/>
</svg>
