<svg width="24" height="24" viewBox="0 0 24 24" fill="none" xmlns="http://www.w3.org/2000/svg">
<g clip-path="url(#clip0_1459_70)">
<path d="M23.9716 1.79177C23.9197 0.838429 23.1615 0.0803194 22.2081 0.0282882C20.2845 -0.0768056 16.5202 0.0254289 12.9208 1.88716C11.0858 2.83629 9.14522 4.44546 7.59652 6.30209C7.57744 6.32496 7.55888 6.34798 7.53994 6.3709L4.02525 6.6424C3.44672 6.68712 2.93142 6.99035 2.61145 7.47429L0.213611 11.1011C-0.0290606 11.4681 -0.0676387 11.9275 0.110346 12.3298C0.288377 12.7322 0.654189 13.0126 1.08896 13.0799L4.0501 13.5386C4.03964 13.5961 4.02914 13.6536 4.01953 13.7112C3.92096 14.3009 4.11633 14.9072 4.54224 15.333L8.66686 19.4577C9.01997 19.8108 9.49711 20.0055 9.98602 20.0055C10.0874 20.0055 10.1887 19.9971 10.2887 19.9804C10.3463 19.9707 10.4038 19.9602 10.4614 19.9498L10.92 22.911C10.9874 23.3457 11.2678 23.7116 11.67 23.8896C11.8341 23.9624 12.0115 24.0001 12.1909 24.0002C12.4428 24 12.689 23.9256 12.8988 23.7864L16.5256 21.3885C17.0096 21.0685 17.3128 20.5532 17.3574 19.9747L17.6289 16.46C17.6518 16.4411 17.6749 16.4225 17.6978 16.4035C19.5544 14.8548 21.1636 12.9141 22.1127 11.0792C23.9745 7.47958 24.0766 3.71529 23.9716 1.79177ZM15.75 20.2154L12.2808 22.5091L11.8338 19.6233C13.3 19.1921 14.7505 18.5017 16.1323 17.5767L15.9555 19.8663C15.9503 19.9363 15.929 20.0043 15.8934 20.0648C15.8578 20.1253 15.8088 20.1768 15.75 20.2154ZM9.66122 18.4633L5.53655 14.3387C5.43131 14.2334 5.38266 14.0855 5.40652 13.943C5.52914 13.2098 5.71969 12.5118 5.95556 11.8542L12.1444 18.043C11.3546 18.3259 10.6472 18.4946 10.0568 18.5934C9.91416 18.6171 9.76645 18.5686 9.66122 18.4633ZM4.13358 8.04448L6.42314 7.86762C5.49811 9.24944 4.80764 10.6999 4.37653 12.1661L1.49072 11.7192L3.7845 8.24988C3.82305 8.19117 3.87458 8.14212 3.93511 8.1065C3.99563 8.07088 4.06354 8.04966 4.13358 8.04448ZM16.7971 15.3235C15.6612 16.271 14.5585 16.9563 13.5422 17.4522L6.54746 10.4575C7.19705 9.13071 7.98985 8.02591 8.67638 7.20288C10.1096 5.48468 11.8921 4.00244 13.5669 3.13619C16.8704 1.42746 20.3509 1.33544 22.1316 1.43238C22.2452 1.43845 22.3526 1.48633 22.4331 1.56683C22.5136 1.64732 22.5615 1.75474 22.5675 1.86841C22.6646 3.6491 22.5724 7.12957 20.8637 10.4331C19.9975 12.1078 18.5153 13.8903 16.7971 15.3235Z" fill="white"/>
<path d="M16.44 11.0739C17.3401 11.0738 18.2406 10.7311 18.9259 10.0459C19.5899 9.38188 19.9555 8.49904 19.9555 7.56004C19.9555 6.62104 19.5898 5.7382 18.9259 5.07421C17.5551 3.70345 15.3248 3.70354 13.9542 5.07421C13.2902 5.7382 12.9245 6.62104 12.9245 7.56004C12.9245 8.49904 13.2902 9.38188 13.9542 10.0459C14.6396 10.7313 15.5396 11.074 16.44 11.0739ZM14.9485 6.06852C15.3596 5.65729 15.8998 5.4517 16.4399 5.4517C16.9801 5.4517 17.5203 5.65729 17.9314 6.06852C18.3298 6.46692 18.5492 6.9966 18.5492 7.55999C18.5492 8.12338 18.3298 8.65312 17.9314 9.05151C17.1091 9.87393 15.7708 9.87388 14.9484 9.05151C14.55 8.65312 14.3306 8.12343 14.3306 7.56004C14.3306 6.99665 14.5501 6.46692 14.9485 6.06852ZM0.717211 19.7783C0.897164 19.7783 1.07712 19.7097 1.21437 19.5724L3.50998 17.2768C3.78457 17.0022 3.78457 16.557 3.50998 16.2824C3.23543 16.0078 2.79021 16.0078 2.51562 16.2824L0.220055 18.578C-0.0545391 18.8526 -0.0545391 19.2978 0.220055 19.5724C0.285263 19.6378 0.362755 19.6896 0.448074 19.725C0.533394 19.7603 0.624859 19.7785 0.717211 19.7783ZM5.61377 18.3862C5.33923 18.1116 4.89401 18.1116 4.61941 18.3862L0.205945 22.7997C-0.0686484 23.0743 -0.0686484 23.5195 0.205945 23.7941C0.343242 23.9314 0.523148 24 0.703102 24C0.883055 24 1.06301 23.9314 1.20026 23.794L5.61373 19.3806C5.88837 19.106 5.88837 18.6608 5.61377 18.3862ZM6.72321 20.49L4.4276 22.7856C4.15301 23.0602 4.15301 23.5054 4.4276 23.78C4.5649 23.9173 4.74485 23.9859 4.92476 23.9859C5.10466 23.9859 5.28466 23.9173 5.42191 23.78L7.71752 21.4844C7.99212 21.2098 7.99212 20.7646 7.71752 20.49C7.44298 20.2154 6.99776 20.2154 6.72321 20.49Z" fill="white"/>
</g>
<defs>
<clipPath id="clip0_1459_70">
<rect width="24" height="24" fill="white"/>
</clipPath>
</defs>
</svg>
