<svg width="24" height="24" viewBox="0 0 24 24" fill="none" xmlns="http://www.w3.org/2000/svg">
<path d="M12 22.75C11.9194 22.75 11.8394 22.7368 11.763 22.711C10.174 22.182 2.25 19.123 2.25 10.889V4.99997C2.24978 4.82703 2.30941 4.65933 2.41878 4.52535C2.52815 4.39138 2.68051 4.29938 2.85 4.26497C5.92075 3.76851 8.89189 2.7823 11.65 1.34397C11.7584 1.29005 11.8774 1.26082 11.9984 1.2584C12.1195 1.25598 12.2395 1.28043 12.35 1.32997C15.0998 2.7841 18.0701 3.77569 21.142 4.26497C21.3115 4.29938 21.4639 4.39138 21.5732 4.52535C21.6826 4.65933 21.7422 4.82703 21.742 4.99997V10.889C21.742 19.123 13.818 22.182 12.229 22.711C12.1552 22.736 12.0779 22.7491 12 22.75ZM3.75 5.61197V10.889C3.75 17.753 10.168 20.549 12 21.206C13.832 20.549 20.25 17.753 20.25 10.889V5.61197C17.381 5.10726 14.6047 4.17205 12.015 2.83797C9.41371 4.16952 6.62789 5.10453 3.75 5.61197ZM11.542 14.53L15.542 10.53C15.6786 10.3885 15.7541 10.199 15.7523 10.0023C15.7505 9.80568 15.6715 9.6176 15.5324 9.47861C15.3933 9.33962 15.2051 9.26083 15.0085 9.25922C14.8118 9.2576 14.6224 9.33329 14.481 9.46997L11.012 12.939L9.542 11.47C9.40061 11.3333 9.2112 11.2576 9.01455 11.2592C8.8179 11.2608 8.62975 11.3396 8.49063 11.4786C8.35151 11.6176 8.27254 11.8057 8.27074 12.0023C8.26894 12.199 8.34445 12.3885 8.481 12.53L10.481 14.53C10.5507 14.5997 10.6334 14.655 10.7244 14.6927C10.8154 14.7304 10.913 14.7498 11.0115 14.7498C11.11 14.7498 11.2076 14.7304 11.2986 14.6927C11.3897 14.655 11.4724 14.5997 11.542 14.53Z" fill="white"/>
</svg>
