<svg width="24" height="24" viewBox="0 0 24 24" fill="none" xmlns="http://www.w3.org/2000/svg">
<g clip-path="url(#clip0_1460_75)">
<path d="M23.3296 11.3874C23.9378 10.7948 24.1524 9.92513 23.8899 9.11813C23.6279 8.3108 22.9431 7.73345 22.1027 7.61134L16.9143 6.85745C16.7846 6.83855 16.6614 6.78843 16.5554 6.71138C16.4493 6.63434 16.3636 6.53269 16.3056 6.41518L13.9852 1.71324C13.6095 0.952227 12.8488 0.479492 12 0.479492C11.1511 0.479492 10.3904 0.952227 10.0147 1.71324L7.69435 6.41513C7.63637 6.53262 7.55071 6.63425 7.44475 6.71129C7.33879 6.78833 7.21569 6.83847 7.08605 6.8574L1.89727 7.61129C1.0569 7.73344 0.3721 8.3108 0.11021 9.11771C-0.152431 9.92513 0.0622097 10.7949 0.670225 11.3872L4.42482 15.0474C4.51861 15.1388 4.58879 15.2516 4.62929 15.3761C4.66979 15.5006 4.67941 15.6331 4.65732 15.7622L3.77082 20.9304C3.62757 21.7671 3.96502 22.5967 4.65151 23.0953C5.33813 23.5942 6.23157 23.6589 6.98326 23.264L11.624 20.8241C11.7399 20.7632 11.8689 20.7313 11.9998 20.7313C12.1307 20.7313 12.2597 20.7631 12.3757 20.8239L17.0168 23.264C17.7684 23.6589 18.6619 23.5942 19.3485 23.0953C20.0349 22.5966 20.3724 21.7671 20.2292 20.9304L19.3426 15.7624C19.3205 15.6333 19.3301 15.5007 19.3707 15.3761C19.4112 15.2515 19.4814 15.1387 19.5752 15.0473L23.3296 11.3874Z" fill="#FECA01"/>
</g>
<defs>
<clipPath id="clip0_1460_75">
<rect width="24" height="24" fill="white"/>
</clipPath>
</defs>
</svg>
